# xmcd
#
# Track frame offsets:
#	150
#	13096
#	28630
#	43123
#	55875
#	74505
#	90845
#	107237
#	125069
#	141692
#	155564
#	172670
#
# Disc length: 2550 seconds
#
# Revision: 0
# Processed by: cddbd v1.5.1PL2 Copyright (c) Steve Scherf et al.
# Submitted via: audiograbber 1.83.01
#
DISCID=a609f40c
DTITLE=Sweet Betty - Live and let live
DYEAR=1900
DGENRE=
TTITLE0=P.A.R.T.Y.
TTITLE1=Everybody needs love
TTITLE2=Untie me
TTITLE3=Live and let live
TTITLE4=Walk the street
TTITLE5=Touched by you
TTITLE6=Damn your eyes
TTITLE7=Old fashioned love
TTITLE8=Pass it on down
TTITLE9=Ain`t that good news
TTITLE10=Weary land
TTITLE11=Walk around heaven
EXTD=
EXTT0=
EXTT1=
EXTT2=
EXTT3=
EXTT4=
EXTT5=
EXTT6=
EXTT7=
EXTT8=
EXTT9=
EXTT10=
EXTT11=
PLAYORDER=
